<svg xmlns="http://www.w3.org/2000/svg" xmlns:xlink="http://www.w3.org/1999/xlink" width="500" zoomAndPan="magnify" viewBox="0 0 375 374.999991" height="500" preserveAspectRatio="xMidYMid meet" version="1.0"><defs><clipPath id="id1"><path d="M 2 65.082031 L 371 65.082031 L 371 309.582031 L 2 309.582031 Z M 2 65.082031 " clip-rule="nonzero"/></clipPath></defs><g clip-path="url(#id1)"><path fill="#000000" d="M 86.453125 309.136719 C 67.078125 309.195312 47.699219 309.308594 28.320312 309.425781 C 27.058594 309.425781 25.742188 309.425781 24.59375 308.910156 C 21.957031 307.648438 21.269531 304.042969 22.359375 301.351562 C 23.449219 298.660156 25.796875 296.769531 28.035156 294.9375 C 20.007812 294.996094 10.835938 294.480469 5.90625 288.183594 C 0 280.625 3.785156 269.691406 7.796875 261.042969 C 11.808594 252.398438 15.765625 243.8125 19.722656 235.222656 C 23.449219 227.148438 27.289062 218.964844 33.421875 212.550781 C 45.691406 199.667969 51.65625 182.148438 56.585938 165.085938 C 58.59375 158.160156 60.542969 150.945312 59.507812 143.789062 C 58.535156 136.632812 53.949219 129.53125 46.953125 127.757812 C 41.792969 126.441406 34.457031 126.957031 33.195312 121.804688 C 32.90625 120.714844 33.078125 119.570312 33.195312 118.425781 C 34.742188 105.3125 36.234375 92.203125 37.78125 79.09375 C 38.011719 77.089844 38.296875 74.96875 39.84375 73.652344 C 43.800781 70.332031 52.917969 74.855469 53.660156 69.703125 C 54.003906 67.125 56.929688 65.238281 59.453125 65.980469 C 61.972656 66.726562 63.40625 69.929688 62.320312 72.277344 C 155.078125 73.082031 247.898438 72.851562 340.714844 71.476562 C 343.8125 71.417969 347.195312 71.304688 349.488281 69.246094 C 350.691406 68.214844 352.46875 68.386719 354.015625 68.84375 C 367.433594 72.449219 375 89.855469 368.40625 102.109375 C 363.707031 110.925781 369.839844 122.949219 364.449219 131.421875 C 359.980469 138.464844 350.117188 139.152344 341.691406 139.09375 C 316.695312 138.863281 291.640625 138.636719 266.585938 138.464844 C 267.734375 139.609375 268.824219 140.8125 269.914062 141.957031 C 264.066406 140.695312 257.929688 139.496094 252.140625 140.984375 C 246.351562 142.527344 241.019531 147.683594 241.476562 153.695312 C 242.28125 163.941406 243.082031 174.191406 243.882812 184.4375 C 243.941406 185.125 244 185.925781 243.597656 186.5 C 243.023438 187.300781 241.992188 187.472656 241.019531 187.589844 C 211.148438 190.507812 180.304688 193.3125 151.695312 184.152344 C 142.351562 191.996094 136.90625 204.25 137.308594 216.445312 C 137.421875 220.222656 133.523438 222.511719 130.65625 224.976562 C 124.921875 229.898438 122.515625 238.316406 124.867188 245.527344 C 126.355469 250.222656 120.109375 253.144531 116.382812 256.40625 C 112.023438 260.300781 110.878906 266.597656 110.417969 272.4375 C 109.960938 278.277344 109.902344 284.460938 106.921875 289.5 C 103.996094 294.539062 96.832031 297.6875 92.128906 294.25 C 94.25 295.683594 96.316406 297.113281 98.4375 298.488281 C 100.617188 301.066406 99.125 305.359375 96.257812 307.191406 C 93.390625 309.023438 89.835938 309.082031 86.453125 309.136719 M 220.4375 141.097656 C 207.480469 142.644531 194.582031 144.246094 181.625 145.851562 C 181.679688 144.875 181.679688 143.902344 181.738281 142.988281 C 175.71875 149.6875 173.828125 159.820312 176.980469 168.234375 C 177.726562 170.355469 178.8125 172.359375 179.332031 174.589844 C 179.789062 176.765625 179.558594 179.285156 178.011719 180.945312 C 187.644531 180.945312 197.21875 180.890625 206.847656 180.890625 C 213.671875 180.832031 221.238281 180.546875 226.285156 175.964844 C 230.585938 171.957031 231.960938 165.660156 232.074219 159.761719 C 232.1875 155.238281 231.617188 150.542969 229.496094 146.535156 C 227.316406 142.527344 223.304688 139.324219 218.714844 139.09375 C 219.289062 139.722656 219.863281 140.410156 220.4375 141.097656 M 159.722656 171.441406 C 160.46875 173.21875 162.417969 174.019531 164.253906 174.648438 C 165.914062 175.222656 167.519531 175.792969 169.183594 176.421875 C 166.660156 172.703125 164.539062 168.695312 162.875 164.515625 C 160.871094 166.347656 158.75 168.921875 159.722656 171.441406 " fill-opacity="1" fill-rule="nonzero"/></g></svg>