<svg xmlns="http://www.w3.org/2000/svg" xmlns:xlink="http://www.w3.org/1999/xlink" width="500" zoomAndPan="magnify" viewBox="0 0 375 374.999991" height="500" preserveAspectRatio="xMidYMid meet" version="1.0"><defs><clipPath id="id1"><path d="M 90 12.296875 L 298.46875 12.296875 L 298.46875 362.546875 L 90 362.546875 Z M 90 12.296875 " clip-rule="nonzero"/></clipPath><clipPath id="id2"><path d="M 89.96875 12.296875 L 298.46875 12.296875 L 298.46875 362.546875 L 89.96875 362.546875 Z M 89.96875 12.296875 " clip-rule="nonzero"/></clipPath></defs><g clip-path="url(#id1)"><path fill="#000000" d="M 113.746094 35.582031 C 113.8125 35.050781 113.820312 34.324219 113.972656 33.808594 C 114.15625 33.179688 114.632812 32.433594 114.914062 31.84375 C 115.066406 31.644531 115.417969 31.183594 115.417969 31.183594 C 114.691406 31.4375 113.671875 31.660156 112.996094 32.03125 C 112.347656 32.386719 111.050781 33.550781 111.050781 33.550781 C 110.558594 33.160156 109.957031 32.566406 109.417969 32.246094 C 108.914062 31.945312 108.1875 31.328125 107.625 31.484375 C 106.992188 31.660156 106.652344 32.683594 106.371094 33.277344 C 105.53125 35.0625 105.0625 37.707031 104.835938 39.664062 C 104.644531 41.304688 104.445312 43.5625 104.835938 45.167969 C 105.1875 46.625 106.445312 48.273438 107.105469 49.621094 C 108.136719 51.726562 109.714844 54.460938 110.421875 56.695312 C 110.734375 57.671875 110.96875 59.03125 111.082031 60.050781 C 111.6875 65.53125 110.707031 72.929688 111.082031 78.433594 C 111.164062 79.628906 111.542969 81.199219 111.5625 82.398438 C 111.59375 84.28125 111.359375 86.808594 110.960938 88.648438 C 110.121094 92.511719 107.804688 97.316406 106.441406 101.03125 C 104.523438 106.277344 101.460938 113.113281 100.015625 118.507812 C 99.597656 120.082031 99 123.835938 99 123.839844 C 99.703125 123.015625 101.347656 121.09375 101.351562 121.09375 C 100.511719 125.425781 99.109375 131.15625 98.550781 135.53125 C 98.097656 139.089844 97.777344 147.457031 97.777344 147.457031 C 98.292969 146.878906 99.488281 145.527344 99.488281 145.527344 C 99.277344 147.234375 98.957031 149.507812 98.785156 151.222656 C 98.40625 155.066406 97.941406 160.203125 97.875 164.0625 C 97.808594 168.078125 97.925781 173.449219 98.375 177.4375 C 98.613281 179.550781 99.640625 184.410156 99.640625 184.410156 C 99.945312 183.769531 100.652344 182.277344 100.652344 182.277344 C 100.839844 183.859375 101.070312 185.972656 101.273438 187.554688 C 101.976562 193 102.96875 200.261719 103.863281 205.679688 C 105.328125 214.558594 107.464844 226.375 109.460938 235.148438 C 110.066406 237.808594 111.730469 243.960938 111.730469 243.960938 C 112.015625 243.078125 112.671875 241.023438 112.671875 241.023438 C 113.882812 244.898438 115.828125 249.972656 116.707031 253.9375 C 117.726562 258.546875 118.390625 264.832031 118.757812 269.535156 C 119.265625 276.078125 119.59375 284.847656 119.210938 291.398438 C 118.832031 297.910156 117.613281 306.5625 116.230469 312.9375 C 115.75 315.144531 114.9375 318.054688 114.175781 320.183594 C 112.980469 323.511719 111.605469 328.207031 109.382812 330.960938 C 108.753906 331.746094 107.707031 332.679688 106.785156 333.089844 C 105.414062 333.703125 103.285156 333.390625 101.828125 333.742188 C 100.679688 334.019531 99.1875 334.546875 98.121094 335.050781 C 96.925781 335.617188 95.300781 336.414062 94.359375 337.339844 C 93.304688 338.382812 92.28125 340.15625 91.746094 341.539062 C 91.550781 342.035156 91.363281 343.28125 91.363281 343.28125 C 91.773438 343.316406 92.726562 343.390625 92.726562 343.390625 C 92.726562 343.71875 92.871094 344.1875 92.726562 344.480469 C 92.582031 344.773438 92.070312 344.890625 91.855469 345.136719 C 91.15625 345.933594 90.273438 348.296875 90.273438 348.296875 C 91.320312 348.6875 92.679688 349.332031 93.761719 349.605469 C 95.597656 350.066406 98.136719 350.269531 100.027344 350.367188 C 103.050781 350.523438 107.09375 350.304688 110.113281 350.125 C 113.457031 349.929688 118.03125 350.078125 121.222656 349.070312 C 122.261719 348.742188 123.621094 348.113281 124.445312 347.402344 C 125.804688 346.230469 126.835938 343.957031 127.832031 342.460938 C 129.027344 340.660156 130.503906 338.1875 131.71875 336.40625 C 132.957031 334.589844 134.496094 332.066406 136.003906 330.46875 C 137.003906 329.40625 138.722656 328.402344 139.742188 327.355469 C 140.992188 326.0625 142.660156 324.25 143.417969 322.617188 C 144.371094 320.558594 144.367188 317.40625 144.914062 315.199219 C 145.3125 313.574219 145.941406 311.429688 146.46875 309.839844 C 147.214844 307.605469 148.40625 304.699219 149.253906 302.5 C 150.113281 300.269531 151.347656 297.328125 152.164062 295.078125 C 152.808594 293.308594 153.546875 290.90625 154.171875 289.132812 C 154.523438 288.132812 154.648438 286.582031 155.378906 285.820312 C 155.703125 285.484375 156.308594 285.148438 156.773438 285.140625 C 157.230469 285.132812 157.75 285.566406 158.164062 285.757812 C 159.023438 286.15625 160.128906 286.773438 161.007812 287.121094 C 162.292969 287.621094 165.402344 288.449219 165.402344 288.449219 C 164.957031 287.921875 164.300781 287.261719 163.917969 286.6875 C 163.449219 285.984375 162.648438 284.179688 162.648438 284.179688 C 163.808594 285.203125 165.269531 286.667969 166.515625 287.585938 C 167.359375 288.203125 169.484375 289.410156 169.484375 289.410156 C 169.390625 289.242188 169.242188 289.03125 169.175781 288.851562 C 168.8125 287.882812 168.410156 286.460938 168.617188 285.449219 C 168.6875 285.109375 168.882812 284.617188 169.175781 284.429688 C 169.464844 284.242188 169.980469 284.269531 170.320312 284.335938 C 170.824219 284.433594 171.421875 284.824219 171.835938 285.128906 C 173.351562 286.242188 175.300781 288.03125 176.070312 289.746094 C 176.554688 290.828125 176.59375 292.476562 176.582031 293.660156 C 176.570312 294.925781 176.03125 296.566406 175.941406 297.832031 C 175.796875 299.914062 175.761719 302.730469 176.085938 304.792969 C 176.371094 306.609375 177.140625 308.960938 177.824219 310.667969 C 178.84375 313.222656 180.640625 316.449219 182.070312 318.804688 C 183.019531 320.359375 185.535156 323.796875 185.535156 323.796875 C 183.523438 323.484375 180.859375 322.945312 178.835938 322.761719 C 177.074219 322.601562 174.710938 322.539062 172.941406 322.582031 C 170.425781 322.640625 167.054688 322.808594 164.578125 323.257812 C 162.320312 323.664062 159.386719 324.574219 157.222656 325.324219 C 156.085938 325.71875 153.511719 326.828125 153.511719 326.828125 C 154.140625 327.101562 155.601562 327.742188 155.601562 327.742188 C 154.371094 328.320312 152.707031 329.046875 151.496094 329.667969 C 149.796875 330.539062 147.523438 331.710938 145.949219 332.785156 C 145.003906 333.429688 142.976562 335.175781 142.976562 335.175781 C 144.003906 335.203125 146.402344 335.273438 146.402344 335.273438 C 144.050781 337.15625 140.855469 339.597656 138.566406 341.558594 C 137.136719 342.785156 133.917969 345.789062 133.917969 345.789062 C 134.558594 345.886719 136.054688 346.117188 136.054688 346.117188 C 135.707031 346.410156 135.296875 346.878906 134.894531 347.09375 C 133.929688 347.601562 132.433594 347.742188 131.359375 347.929688 C 129.929688 348.179688 126.554688 348.453125 126.550781 348.453125 C 127.042969 348.859375 127.648438 349.464844 128.1875 349.808594 C 129.277344 350.492188 130.894531 351.121094 132.113281 351.535156 C 134.601562 352.382812 138.058594 353.039062 140.644531 353.507812 C 142.535156 353.847656 146.988281 354.363281 146.988281 354.363281 C 146.175781 354.632812 144.289062 355.265625 144.289062 355.265625 C 144.917969 355.585938 145.726562 356.085938 146.386719 356.335938 C 147.945312 356.925781 150.15625 357.296875 151.789062 357.625 C 154.839844 358.230469 158.9375 358.898438 162.03125 359.230469 C 164.421875 359.488281 167.632812 359.636719 170.035156 359.71875 C 172.238281 359.796875 177.375 359.789062 177.375 359.789062 C 177.386719 359.9375 177.414062 360.285156 177.414062 360.285156 C 179.042969 360.628906 181.195312 361.203125 182.84375 361.429688 C 186.011719 361.871094 190.289062 361.957031 193.488281 362.058594 C 199.527344 362.246094 207.59375 362.261719 213.632812 362.058594 C 217.613281 361.921875 222.925781 361.640625 226.886719 361.195312 C 229.40625 360.914062 235.234375 359.894531 235.234375 359.894531 C 234.726562 360.515625 233.550781 361.960938 233.550781 361.960938 C 238.167969 361.894531 244.328125 361.878906 248.945312 361.734375 C 252.828125 361.609375 258.03125 361.597656 261.886719 361.121094 C 266.144531 360.59375 271.828125 359.625 275.90625 358.285156 C 278.246094 357.515625 281.304688 356.207031 283.398438 354.902344 C 284.5 354.214844 286.78125 352.195312 286.78125 352.195312 C 286.859375 352.679688 287.042969 353.808594 287.042969 353.808594 C 287.574219 353.464844 288.328125 353.070312 288.8125 352.664062 C 290.300781 351.410156 292.011719 349.398438 293.078125 347.769531 C 294.1875 346.082031 295.328125 343.609375 295.96875 341.695312 C 296.390625 340.433594 296.894531 337.363281 296.894531 337.359375 C 297.054688 337.707031 297.191406 338.210938 297.425781 338.511719 C 297.597656 338.726562 298.132812 339.085938 298.132812 339.085938 C 298.066406 337.359375 298.230469 335.035156 297.914062 333.335938 C 297.632812 331.835938 296.910156 329.910156 296.277344 328.519531 C 295.460938 326.722656 294.078125 324.460938 292.949219 322.84375 C 291.398438 320.613281 288.820312 318.035156 287.175781 315.875 C 284.875 312.859375 281.699219 308.863281 279.953125 305.492188 C 279.265625 304.160156 278.289062 302.320312 278.15625 300.828125 C 278.105469 300.273438 278.039062 299.402344 278.410156 298.988281 C 278.679688 298.691406 279.296875 298.617188 279.699219 298.621094 C 280.210938 298.628906 281.3125 299.171875 281.3125 299.171875 C 281.304688 298.898438 281.34375 298.523438 281.277344 298.253906 C 280.949219 296.898438 279.78125 295.359375 279.058594 294.164062 C 277.824219 292.136719 274.589844 287.644531 274.589844 287.644531 C 275.277344 287.753906 276.882812 288.003906 276.886719 288.003906 C 275.796875 284.890625 274.597656 280.636719 273.261719 277.621094 C 271.289062 273.15625 268.066406 267.46875 265.414062 263.371094 C 263.289062 260.085938 260.121094 255.921875 257.601562 252.925781 C 255.839844 250.828125 252.664062 248.667969 251.363281 246.257812 C 250.507812 244.671875 250.550781 242.097656 249.828125 240.445312 C 249.488281 239.675781 248.839844 238.75 248.375 238.054688 C 247.449219 236.667969 246.117188 234.886719 245.058594 233.597656 C 243.671875 231.90625 240.148438 228.207031 240.148438 228.203125 C 240.898438 228.246094 242.652344 228.347656 242.652344 228.347656 C 241.0625 226.210938 238.960938 223.34375 237.355469 221.21875 C 234.871094 217.933594 231.53125 213.574219 228.980469 210.339844 C 227.292969 208.207031 223.285156 203.289062 223.285156 203.289062 C 223.761719 203.425781 224.382812 203.664062 224.867188 203.742188 C 225.472656 203.839844 226.90625 203.816406 226.90625 203.816406 C 225.359375 202.265625 223.269531 200.226562 221.757812 198.640625 C 219.285156 196.035156 215.957031 192.578125 213.726562 189.765625 C 210.722656 185.972656 207.042969 180.644531 204.625 176.453125 C 203.53125 174.554688 202.34375 171.878906 201.394531 169.90625 C 201.042969 169.164062 200.394531 168.234375 200.238281 167.429688 C 200.046875 166.453125 200.070312 165.039062 200.4375 164.117188 C 200.785156 163.246094 201.835938 162.4375 202.433594 161.71875 C 201.558594 161.121094 200.375 160.347656 199.519531 159.722656 C 198.828125 159.21875 197.265625 157.980469 197.265625 157.980469 C 197.585938 157.863281 198 157.660156 198.332031 157.589844 C 199.046875 157.441406 200.761719 157.496094 200.761719 157.496094 C 200.179688 155.917969 199.5625 153.75 198.820312 152.246094 C 197.882812 150.351562 195.03125 146.316406 195.03125 146.316406 C 196.195312 146.695312 198.917969 147.578125 198.917969 147.582031 C 196.933594 143.992188 194.285156 139.214844 192.308594 135.625 C 190.464844 132.273438 187.753906 127.933594 186.1875 124.445312 C 184.546875 120.796875 183.03125 115.664062 181.703125 111.890625 C 181.171875 110.386719 180.542969 108.351562 179.953125 106.867188 C 179.804688 106.496094 179.292969 106.027344 179.417969 105.652344 C 179.480469 105.464844 179.757812 105.308594 179.953125 105.269531 C 180.816406 105.101562 181.835938 106.121094 182.691406 106.335938 C 184.09375 106.691406 186.035156 106.910156 187.484375 106.867188 C 188.988281 106.828125 190.976562 106.4375 192.425781 106.03125 C 193.226562 105.808594 194.59375 105.757812 195.011719 105.042969 C 195.339844 104.488281 195.003906 103.515625 194.785156 102.914062 C 194.433594 101.941406 193.433594 100.917969 192.808594 100.097656 C 191.515625 98.414062 189.648438 96.285156 188.242188 94.695312 C 186.4375 92.652344 183.773438 90.152344 182.074219 88.019531 C 180.222656 85.691406 177.800781 82.492188 176.492188 79.820312 C 175.507812 77.8125 174.894531 74.855469 174.136719 72.753906 C 173.472656 70.902344 172.597656 68.425781 171.785156 66.632812 C 170.011719 62.726562 167.40625 57.601562 165.007812 54.046875 C 163.960938 52.496094 162.574219 50.335938 161.09375 49.1875 C 160.515625 48.742188 159.585938 48.398438 158.917969 48.101562 C 157.578125 47.507812 155.558594 47.195312 154.351562 46.363281 C 153.617188 45.855469 152.863281 44.894531 152.320312 44.1875 C 150.734375 42.113281 149.214844 38.941406 147.878906 36.699219 C 145.554688 32.796875 142.226562 27.726562 140.117188 23.707031 C 139.109375 21.777344 138.066406 19.050781 137.058594 17.117188 C 136.394531 15.839844 135.90625 13.691406 134.667969 12.957031 C 134.21875 12.695312 133.433594 12.59375 132.941406 12.761719 C 132.265625 12.996094 131.8125 13.996094 131.296875 14.488281 C 130.738281 15.019531 129.90625 15.628906 129.355469 16.164062 C 128.167969 17.3125 126.5625 18.863281 125.664062 20.25 C 125.09375 21.125 124.523438 22.421875 124.207031 23.417969 C 123.800781 24.691406 123.613281 26.480469 123.414062 27.800781 C 123.109375 29.820312 123.152344 32.589844 122.621094 34.5625 C 122.425781 35.296875 122.164062 36.328125 121.675781 36.90625 C 121.21875 37.445312 120.355469 37.964844 119.675781 38.152344 C 119.140625 38.300781 118.363281 38.28125 117.824219 38.152344 C 117.191406 38.003906 116.449219 37.511719 115.898438 37.171875 C 115.214844 36.75 113.746094 35.585938 113.746094 35.582031 Z M 113.746094 35.582031 " fill-opacity="1" fill-rule="evenodd"/></g><g clip-path="url(#id2)"><path stroke-linecap="round" transform="matrix(0.575964, 0, 0, 0.576069, -165.529907, -17.946788)" fill="none" stroke-linejoin="round" d="M 785.76655 645.331279 C 785.76655 645.331279 785.44779 643.371607 785.312148 642.530779 C 785.312148 642.530779 781.351394 646.03649 779.438838 647.229923 C 775.803625 649.494734 770.49323 651.766326 766.430744 653.102157 C 759.350218 655.427996 749.482243 657.109652 742.089739 658.02507 C 735.395793 658.852336 726.362018 658.872679 719.620597 659.089666 C 711.604139 659.340559 700.908746 659.367682 692.892288 659.482957 C 692.892288 659.482957 694.933704 656.974035 695.815379 655.895876 C 695.815379 655.895876 685.696466 657.665684 681.322003 658.153906 C 674.44494 658.926926 665.221265 659.415148 658.310292 659.652479 C 647.825144 660.005084 633.82008 659.977961 623.334933 659.652479 C 617.780382 659.476176 610.353968 659.326997 604.853673 658.560759 C 601.991622 658.167468 598.254677 657.17068 595.426536 656.573963 C 595.426536 656.573963 595.379061 655.970466 595.358715 655.712793 C 595.358715 655.712793 586.440236 655.726354 582.615124 655.590737 C 578.444124 655.448339 572.869227 655.190666 568.718573 654.743128 C 563.347139 654.166754 556.232702 653.007225 550.935872 651.95619 C 548.100948 651.386597 544.262272 650.742414 541.556209 649.718503 C 540.410032 649.284527 539.006134 648.416575 537.914214 647.860544 C 537.914214 647.860544 541.189975 646.762043 542.600654 646.294163 C 542.600654 646.294163 534.869045 645.399088 531.586502 644.809152 C 527.096743 643.995448 521.094572 642.856261 516.774366 641.384812 C 514.658347 640.66604 511.850552 639.57432 509.958342 638.387667 C 509.022411 637.790951 507.971183 636.739915 507.116637 636.034705 C 507.123419 636.034705 512.983165 635.560044 515.465418 635.126068 C 517.3305 634.800586 519.928049 634.556475 521.603231 633.674962 C 522.301789 633.302014 523.013911 632.488309 523.617519 631.979744 C 523.617519 631.979744 521.019969 631.579673 519.907703 631.410151 C 519.907703 631.410151 525.496164 626.195661 527.978418 624.066468 C 531.952736 620.66247 537.500505 616.424426 541.583337 613.156046 C 541.583337 613.156046 537.41912 613.03399 535.635424 612.986524 C 535.635424 612.986524 539.155341 609.955475 540.796612 608.836631 C 543.529804 606.971892 547.476994 604.93763 550.427213 603.425496 C 552.529668 602.347338 555.418849 601.086096 557.555214 600.082527 C 557.555214 600.082527 555.018704 598.970464 553.926784 598.495803 C 553.926784 598.495803 558.396196 596.570035 560.369791 595.885167 C 564.127082 594.58324 569.220449 593.003297 573.140511 592.298087 C 577.440371 591.518286 583.293335 591.226709 587.661016 591.124996 C 590.733313 591.050406 594.836492 591.1589 597.895225 591.436916 C 601.40836 591.755617 606.033761 592.691377 609.52655 593.233847 C 609.52655 593.233847 605.158869 587.26668 603.510815 584.567894 C 601.028562 580.479028 597.908789 574.878029 596.138658 570.443339 C 594.951788 567.480099 593.615712 563.398014 593.120617 560.244909 C 592.557702 556.664609 592.618741 551.775601 592.869679 548.161397 C 593.025668 545.964395 593.961599 543.116429 593.981946 540.919427 C 594.002292 538.864823 593.934471 536.003295 593.093489 534.124994 C 591.757412 531.148191 588.373138 528.042553 585.741678 526.110004 C 585.022774 525.581096 583.98511 524.903009 583.110218 524.733487 C 582.520174 524.618213 581.624935 524.570747 581.123059 524.896228 C 580.6144 525.22171 580.275294 526.0761 580.153216 526.666036 C 579.793764 528.422281 580.492322 530.890518 581.123059 532.572174 C 581.238354 532.884094 581.496075 533.250262 581.658846 533.541839 C 581.658846 533.541839 577.969376 531.44655 576.504439 530.375172 C 574.340945 528.781667 571.804435 526.238841 569.790147 524.462253 C 569.790147 524.462253 571.18048 527.595015 571.994334 528.815572 C 572.658981 529.81236 573.798376 530.958327 574.571537 531.873745 C 574.571537 531.873745 569.172975 530.4362 566.941659 529.568249 C 565.415684 528.964751 563.496346 527.893373 562.004281 527.201725 C 561.285377 526.869462 560.383356 526.116785 559.589848 526.130347 C 558.782777 526.143909 557.731549 526.727064 557.168634 527.310218 C 555.900379 528.632488 555.683351 531.324494 555.072961 533.060397 C 553.987823 536.138913 552.706003 540.309148 551.586955 543.380883 C 550.169493 547.286665 548.026345 552.39266 546.53428 556.264538 C 545.062561 560.082168 542.994017 565.127136 541.698633 569.005795 C 540.783048 571.765609 539.691128 575.488307 538.999352 578.30915 C 538.049856 582.140342 538.056638 587.612505 536.401803 591.186024 C 535.086073 594.020428 532.19011 597.166752 530.019834 599.41122 C 528.249702 601.228494 525.265572 602.971178 523.529351 604.815575 C 520.911455 607.588951 518.239303 611.969394 516.089373 615.122499 C 513.980135 618.214576 511.416497 622.506867 509.34117 625.632849 C 507.611731 628.229922 505.821253 632.176389 503.461078 634.210651 C 502.030052 635.444769 499.669876 636.536489 497.865834 637.106083 C 492.324847 638.855547 484.382992 638.597874 478.577503 638.936918 C 473.33493 639.248838 466.315442 639.628567 461.066086 639.357332 C 457.783544 639.18781 453.37517 638.835205 450.187576 638.035062 C 448.308931 637.560401 445.948756 636.441557 444.131149 635.76347 C 444.131149 635.76347 445.663907 631.661043 446.877905 630.277745 C 447.250921 629.850551 448.139378 629.647124 448.390316 629.138559 C 448.641255 628.629994 448.390316 627.816289 448.390316 627.246696 C 448.390316 627.246696 446.735481 627.117859 446.023359 627.056832 C 446.023359 627.056832 446.3489 624.893734 446.688006 624.032563 C 447.617155 621.632135 449.394069 618.553619 451.22524 616.743127 C 452.859729 615.13606 455.681088 613.752763 457.756415 612.769536 C 459.607932 611.894804 462.198699 610.979386 464.192641 610.497945 C 466.722369 609.887666 470.418621 610.430136 472.799143 609.365539 C 474.399721 608.653548 476.217328 607.032919 477.309248 605.669964 C 481.168271 600.88945 483.555575 592.738843 485.630901 586.961541 C 486.953413 583.265966 488.364093 578.214217 489.198293 574.383025 C 491.599161 563.316644 493.715181 548.297014 494.373046 536.993302 C 495.037693 525.621782 494.467995 510.398726 493.58632 499.040767 C 492.948802 490.876598 491.795842 479.966177 490.025711 471.964749 C 488.499735 465.082165 485.122243 456.273813 483.019788 449.547189 C 483.019788 449.547189 481.880393 453.113927 481.385298 454.646404 C 481.385298 454.646404 478.496118 443.966532 477.44489 439.348759 C 473.97923 424.118923 470.269414 403.606788 467.726122 388.193868 C 466.173018 378.7888 464.450361 366.183161 463.229581 356.730626 C 462.876911 353.984374 462.476766 350.315922 462.151225 347.56967 C 462.151225 347.56967 460.923662 350.159962 460.394657 351.272025 C 460.394657 351.272025 458.610961 342.836622 458.197252 339.16817 C 457.417309 332.244901 457.213846 322.921203 457.329142 315.950468 C 457.444438 309.250967 458.251509 300.334122 458.909374 293.661745 C 459.207787 290.684942 459.763921 286.738475 460.130155 283.775235 C 460.130155 283.775235 458.054828 286.121416 457.159589 287.124985 C 457.159589 287.124985 457.715722 272.600359 458.502448 266.422986 C 459.47229 258.82841 461.907068 248.880872 463.365223 241.360886 C 463.358441 241.360886 460.503171 244.697075 459.282391 246.127839 C 459.282391 246.121058 460.320054 239.604641 461.04574 236.87195 C 463.555122 227.507567 468.872299 215.641042 472.202317 206.534333 C 474.569274 200.085724 478.591068 191.745253 480.049222 185.038971 C 480.740998 181.845181 481.147924 177.457957 481.093667 174.189578 C 481.059757 172.10785 480.401892 169.38194 480.259467 167.306994 C 479.608385 157.752746 481.310695 144.909776 480.259467 135.396214 C 480.062786 133.626407 479.655859 131.266664 479.11329 129.571446 C 477.885728 125.692788 475.145754 120.946178 473.355276 117.291289 C 472.209099 114.951888 470.025258 112.090361 469.414868 109.561096 C 468.736657 106.774158 469.082545 102.854814 469.414868 100.006848 C 469.808231 96.609632 470.622084 92.018982 472.080239 88.920124 C 472.568551 87.889432 473.158595 86.112844 474.257297 85.807704 C 475.233921 85.536469 476.495395 86.607847 477.370287 87.129974 C 478.306219 87.686006 479.350664 88.716698 480.205211 89.394785 C 480.205211 89.394785 482.456872 87.374086 483.582703 86.757026 C 484.756009 86.112844 486.52614 85.726334 487.787613 85.285577 C 487.787613 85.285577 487.177223 86.08572 486.912721 86.431544 C 486.424409 87.455456 485.596991 88.750602 485.278231 89.842323 C 485.013729 90.737398 485.000165 91.99864 484.884869 92.920838 C 484.884869 92.927619 487.434943 94.948319 488.621813 95.680653 C 489.578091 96.270588 490.866693 97.124978 491.965395 97.382651 C 492.901327 97.60642 494.250967 97.640324 495.180117 97.382651 C 496.360205 97.057169 497.859052 96.155314 498.652559 95.219553 C 499.500323 94.215984 499.954725 92.425834 500.293831 91.151031 C 501.216198 87.726691 501.141595 82.919053 501.6706 79.413343 C 502.016487 77.121409 502.342029 74.01577 503.047369 71.805206 C 503.59672 70.076083 504.586908 67.824834 505.577097 66.305919 C 507.136983 63.89871 509.924432 61.206704 511.986194 59.213128 C 512.942472 58.284149 514.387062 57.226333 515.356905 56.304134 C 516.252143 55.449745 517.038869 53.713842 518.212174 53.306989 C 519.066721 53.015412 520.429925 53.191715 521.209868 53.646033 C 523.359798 54.920837 524.207563 58.650316 525.360522 60.867661 C 527.110307 64.224192 528.921131 68.95724 530.670917 72.30699 C 534.333258 79.284506 540.111619 88.086077 544.146976 94.860167 C 546.466459 98.752387 549.104701 104.258454 551.858239 107.859097 C 552.800953 109.086435 554.109901 110.754529 555.384938 111.636042 C 557.480611 113.080368 560.986964 113.622837 563.313229 114.65353 C 564.47297 115.168876 566.087113 115.765593 567.090866 116.538612 C 569.661287 118.532188 572.068937 122.28201 573.886544 124.974016 C 578.050761 131.144608 582.574431 140.041111 585.65351 146.821982 C 587.06419 149.934402 588.583383 154.233474 589.736343 157.447607 C 591.052073 161.095716 592.116864 166.228835 593.825957 169.714203 C 596.097965 174.352319 600.302875 179.905852 603.517597 183.947251 C 606.467816 187.649607 611.093218 191.989364 614.226554 195.53576 C 616.668115 198.295574 619.909965 201.991149 622.154845 204.913704 C 623.239983 206.337687 624.976204 208.114275 625.586594 209.802712 C 625.966393 210.846967 626.549654 212.535403 625.979957 213.498287 C 625.254271 214.739187 622.880531 214.827338 621.490198 215.213847 C 618.974034 215.919058 615.521938 216.597145 612.910824 216.664954 C 610.39466 216.739543 607.02395 216.359815 604.589171 215.742755 C 603.103888 215.369808 601.333757 213.6 599.83491 213.891578 C 599.495804 213.959386 599.014274 214.230621 598.90576 214.556103 C 598.688732 215.207067 599.577189 216.020771 599.83491 216.664954 C 600.859009 219.241685 601.950929 222.774519 602.873296 225.385154 C 605.179215 231.935475 607.810675 240.84554 610.659163 247.178874 C 613.37879 253.234191 618.085577 260.767739 621.286734 266.585727 C 624.718484 272.817347 629.316757 281.110352 632.76207 287.341973 C 632.76207 287.335192 628.034937 285.802715 626.013867 285.144971 C 626.013867 285.144971 630.96481 292.14961 632.592517 295.438333 C 633.881119 298.048968 634.952693 301.812352 635.963228 304.551824 C 635.963228 304.551824 632.98588 304.456891 631.744753 304.714564 C 631.168274 304.83662 630.44937 305.189225 629.893236 305.392652 C 629.893236 305.392652 632.606082 307.542188 633.806516 308.41692 C 635.291799 309.501859 637.346779 310.844472 638.865972 311.881945 C 637.828309 313.129625 636.003921 314.533266 635.400312 316.0454 C 634.762794 317.645686 634.722101 320.100361 635.054425 321.795579 C 635.325709 323.192438 636.45154 324.806285 637.06193 326.094651 C 638.709984 329.518991 640.771746 334.163887 642.670738 337.459391 C 646.868866 344.735265 653.257617 353.984374 658.473062 360.568599 C 662.345649 365.450826 668.12401 371.451897 672.417088 375.974738 C 675.041766 378.727772 678.670196 382.267387 681.355913 384.959392 C 681.355913 384.959392 678.866877 385.000078 677.81565 384.830556 C 676.974668 384.694939 675.896312 384.281305 675.068894 384.043975 C 675.068894 384.043975 682.027342 392.581092 684.957215 396.283447 C 689.385935 401.898008 695.184642 409.46546 699.498067 415.168173 C 702.285515 418.856967 705.934292 423.834126 708.694612 427.543263 C 708.694612 427.543263 705.649443 427.36696 704.347278 427.29237 C 704.347278 427.299151 710.464744 433.720636 712.872394 436.656753 C 714.710347 438.894441 717.023048 441.986518 718.630409 444.393727 C 719.43748 445.600722 720.563311 447.207789 721.153355 448.54362 C 722.408046 451.411929 722.333443 455.880523 723.818725 458.633556 C 726.077169 462.817354 731.591027 466.567176 734.649761 470.208503 C 739.024224 475.409431 744.524518 482.63784 748.213987 488.340553 C 752.819042 495.453686 758.414286 505.326635 761.839253 513.07717 C 764.158736 518.312003 766.240845 525.696371 768.133055 531.100725 C 768.126272 531.100725 765.338824 530.66675 764.145172 530.476885 C 764.145172 530.476885 769.760762 538.274887 771.90391 541.794159 C 773.158601 543.869106 775.186453 546.540769 775.75615 548.893731 C 775.871446 549.361611 775.803625 550.012575 775.817189 550.487236 C 775.817189 550.487236 773.904633 549.544695 773.016176 549.531133 C 772.317619 549.524352 771.246045 549.653189 770.778079 550.168535 C 770.133778 550.887307 770.249074 552.399441 770.337241 553.362325 C 770.567833 555.952618 772.263362 559.146408 773.457014 561.458685 C 776.488618 567.310577 782.002477 574.247408 785.997141 579.48224 C 788.852411 583.232062 793.328606 587.707437 796.021105 591.579314 C 797.981136 594.386595 800.382004 598.312719 801.799466 601.43192 C 802.898168 603.84591 804.152859 607.188879 804.641171 609.792734 C 805.190522 612.742413 804.905674 616.777031 805.02097 619.774176 C 805.02097 619.774176 804.09182 619.150336 803.793407 618.777388 C 803.38648 618.255261 803.149106 617.380529 802.87104 616.777031 C 802.87104 616.783812 801.996147 622.113577 801.263679 624.303798 C 800.151412 627.626425 798.171035 631.918716 796.244915 634.848052 C 794.393398 637.675676 791.422832 641.167824 788.838847 643.344484 C 787.997865 644.049694 786.688917 644.734562 785.76655 645.331279 M 486.912721 86.431544 L 486.912721 86.431544 M 638.865972 311.881945 L 638.865972 311.881945 M 484.884869 92.920838 L 484.884869 92.920838 " stroke="#000000" stroke-width="1" stroke-opacity="1" stroke-miterlimit="4"/></g></svg>